# AST/ASF file generated using VICON BodyLanguage
# -----------------------------------------------
:version 1.10
:name VICON
:units
  mass 1.0
  length 0.45
  angle deg
:documentation
   .ast/.asf automatically generated from VICON data using
   VICON BodyBuilder and BodyLanguage model FoxedUp or BRILLIANT.MOD
:root
   order TX TY TZ RX RY RZ
   axis XYZ
   position 0 0 0  
   orientation 0 0 0 
:bonedata
  begin
     id 1 
     name lhipjoint
     direction 0.558404 -0.748506 0.357664 
     length 2.4234 
     axis 0 0 0  XYZ
  end
  begin
     id 2 
     name lfemur
     direction 0.34202 -0.939693 0  
     length 7.14567  
     axis 0 0 20  XYZ
    dof rx ry rz
    limits (-160.0 20.0)
           (-70.0 70.0)
           (-60.0 70.0)
  end
  begin
     id 3 
     name ltibia
     direction 0.34202 -0.939693 0   
     length 8.13956   
     axis 0 0 20   XYZ
    dof rx
    limits (-10.0 170.0)
  end
  begin
     id 4 
     name lfoot
     direction 0.0791314 -0.217412 0.972867   
     length 2.00134   
     axis -90 7.62852e-016 20   XYZ
    dof rx rz
    limits (-45.0 90.0)
           (-70.0 20.0)
  end
  begin
     id 5 
     name ltoes
     direction 1.53547e-011 -4.21922e-011 1   
     length 1.00735   
     axis -90 7.62852e-016 20   XYZ
    dof rx
    limits (-90.0 20.0)
  end
  begin
     id 6 
     name rhipjoint
     direction -0.496392 -0.78327 0.374276   
     length 2.31584  
     axis 0 0 0  XYZ 
  end
  begin
     id 7 
     name rfemur
     direction -0.34202 -0.939693 0   
     length 7.47417   
     axis 0 0 -20   XYZ
    dof rx ry rz
    limits (-160.0 20.0)
           (-70.0 70.0)
           (-70.0 60.0)
  end
  begin
     id 8 
     name rtibia
     direction -0.34202 -0.939693 0   
     length 7.69071   
     axis 0 0 -20   XYZ
    dof rx
    limits (-10.0 170.0)
 end
 begin
     id 9 
     name rfoot
     direction -0.103069 -0.28318 0.953512   
     length 2.16135  
     axis -90 -7.62852e-016 -20   XYZ
    dof rx rz
    limits (-45.0 90.0)
           (-20.0 70.0)
  end
  begin
     id 10 
     name rtoes
     direction -1.53581e-011 -4.21904e-011 1   
     length 1.07867   
     axis -90 -7.62852e-016 -20   XYZ
    dof rx
    limits (-90.0 20.0)
  end
  begin
     id 11 
     name lowerback
     direction -0.0258961 0.994776 -0.0987407   
     length 2.19412   
     axis 0 0 0   XYZ
    dof rx ry rz
    limits (-20.0 45.0)
           (-30.0 30.0)
           (-30.0 30.0)
  end
  begin
     id 12 
     name upperback
     direction 0.0402454 0.999185 0.00320666   
     length 2.18445   
     axis 0 0 0   XYZ
    dof rx ry rz
    limits (-20.0 45.0)
           (-30.0 30.0)
           (-30.0 30.0)
  end
  begin
     id 13 
     name thorax
     direction 0.0519376 0.997415 0.0496558   
     length 2.21487   
     axis 0 0 0   XYZ
    dof rx ry rz
    limits (-20.0 45.0)
           (-30.0 30.0)
           (-30.0 30.0)
  end
  begin
     id 14 
     name lowerneck
     direction -0.0921276 0.983211 0.157506   
     length 1.61201   
     axis 0 0 0   XYZ
    dof rx ry rz
    limits (-20.0 45.0)
           (-30.0 30.0)
           (-30.0 30.0)
  end
  begin
     id 15 
     name upperneck
     direction 0.0820814 0.98162 -0.172292   
     length 1.65275   
     axis 0 0 0   XYZ
    dof rx ry rz
    limits (-20.0 45.0)
           (-30.0 30.0)
           (-30.0 30.0)
  end
  begin
     id 16
     name head
     direction 0.0336554 0.996413 -0.0776455  
     length 1.66415  
     axis 0 0 0   XYZ
    dof rx ry rz
    limits (-20.0 45.0)
           (-30.0 30.0)
           (-30.0 30.0)
  end
  begin
     id 17 
     name lclavicle
     direction 0.94696 0.284418 -0.149576  
     length 3.41447  
     axis 0 0 0   XYZ
    dof ry rz
    limits (-20.0 10.0)
           (0.0 20.0)
  end
  begin
     id 18 
     name lhumerus
     direction 1 -0.000130264 -9.81312e-005   
     length 5.19964   
     axis 180 -30 -90   XYZ
    dof rx ry rz
    limits (-60.0 90.0)
           (-90.0 90.0)
           (-90.0 90.0)
  end
  begin
     id 19
     name lradius
     direction 1 -4.48961e-011 1.43854e-026   
     length 3.32189   
     axis 180 -30 -90   XYZ
    dof rx
    limits (-10.0 170.0)
  end
  begin
     id 20
     name lwrist
     direction 1 -4.48958e-011 3.1502e-026   
     length 1.66095   
     axis -1.97692e-014 90 90   XYZ
    dof ry
    limits (-180.0 0.0)
 end
  begin
     id 21 
     name lhand
     direction 1 -4.48927e-011 6.3004e-026   
     length 0.645616   
     axis -4.02019e-014 90 90   XYZ
    dof rx rz
    limits (-90.0 90.0)
           (-45.0 45.0)
  end
  begin
     id 22 
     name lfingers
     direction 1 -4.4904e-011 1.26008e-025   
     length 0.520512   
     axis -8.04039e-014 90 90   XYZ
    dof rx
    limits (0.0 90.0)
  end
  begin
     id 23
     name lthumb
     direction 0.707107 -6.34947e-011 0.707107   
     length 0.747354   
     axis -90 45 2.85299e-015   XYZ
    dof rx rz
    limits (-45.0 45.0)
           (-45.0 45.0)
  end
  begin
     id 24 
     name rclavicle
     direction -0.909391 0.383475 -0.161107   
     length 3.25176  
     axis 0 0 0   XYZ 
    dof ry rz
    limits (-10.0 20.0)
           (-20.0 0.0)
  end
  begin
     id 25 
     name rhumerus
     direction -1 -4.48965e-011 -1.81384e-027  
     length 5.6595   
     axis 180 30 90   XYZ
    dof rx ry rz
    limits (-90.0 60.0)
           (-90.0 90.0)
           (-90.0 90.0)
  end
  begin
     id 26 
     name rradius
     direction -1 -4.48996e-011 -8.09397e-027   
     length 3.37604   
     axis 180 30 90   XYZ
    dof rx
    limits (-10.0 170.0)
  end
  begin
     id 27 
     name rwrist
     direction -1 -4.48927e-011 -1.56669e-026   
     length 1.68802   
     axis 1.21142e-014 -90 -90   XYZ
    dof ry
    limits (-180.0 0.0)
  end
  begin
     id 28
     name rhand
     direction -1 -4.48912e-011 -3.13339e-026   
     length 0.824702   
     axis 1.99937e-014 -90 -90   XYZ
    dof rx rz
    limits (-90.0 90.0)
           (-45.0 45.0)
  end
  begin
     id 29
     name rfingers
     direction -1 -4.49011e-011 -6.26677e-026   
     length 0.664896   
     axis 3.99874e-014 -90 -90   XYZ
    dof rx
    limits (0.0 90.0)
  end
  begin
     id 30
     name rthumb
     direction -0.707107 -6.34931e-011 0.707107   
     length 0.954662   
     axis -90 -45 -2.85299e-015   XYZ
    dof rx rz
    limits (-45.0 45.0)
           (-45.0 45.0)
  end
:hierarchy
  begin
    root lhipjoint rhipjoint lowerback
    lhipjoint lfemur
    lfemur ltibia
    ltibia lfoot
    lfoot ltoes
    rhipjoint rfemur
    rfemur rtibia
    rtibia rfoot
    rfoot rtoes
    lowerback upperback
    upperback thorax
    thorax lowerneck lclavicle rclavicle
    lowerneck upperneck
    upperneck head
    lclavicle lhumerus
    lhumerus lradius
    lradius lwrist
    lwrist lhand lthumb
    lhand lfingers
    rclavicle rhumerus
    rhumerus rradius
    rradius rwrist
    rwrist rhand rthumb
    rhand rfingers
  end

#!OML:ASF F:\VICON\USERDATA\INSTALL\rory3\rory3.ASF
:FULLY-SPECIFIED
:DEGREES
374
root 8.74961 17.1867 13.273 -3.44045 20.5449 -2.7753
lowerback 7.72248 -4.63037 -4.79971
upperback -1.69651 -6.30926 6.68967
thorax -4.82963 -2.90019 10.561
lowerneck -6.45085 -8.24523 -16.1017
upperneck 17.9206 -11.6498 12.8104
head 8.31178 -5.63612 5.78481
rclavicle 3.62782e-014 -2.22639e-014
rhumerus -30.3768 -18.9057 -60.0231
rradius 37.0141
rwrist -22.4744
rhand -15.9272 16.9474
rfingers 7.12502
rthumb 10.2704 -12.7818
lclavicle 3.62782e-014 -2.22639e-014
lhumerus 28.7353 -61.3226 72.3376
lradius 73.4016
lwrist -1.6731
lhand -7.27873 23.998
lfingers 7.12502
lthumb 18.6027 53.1285
rfemur -20.0535 2.8256 21.5152
rtibia 44.7324
rfoot -17.6987 -12.1213
rtoes 23.3411
lfemur -22.3164 0.628738 -12.6366
ltibia 60.5974
lfoot -12.8574 0.230547
ltoes -2.21026
375
root 8.84866 17.2143 13.3388 -3.5315 20.131 -3.0306
lowerback 7.75257 -4.37751 -4.49269
upperback -1.96279 -5.93272 6.65111
thorax -5.24436 -2.68898 10.3369
lowerneck -5.59156 -8.12784 -16.1975
upperneck 17.9315 -11.6176 12.8862
head 8.16326 -5.65532 5.86325
rclavicle 4.48756e-014 -3.02153e-014
rhumerus -29.556 -18.5545 -59.4759
rradius 38.2119
rwrist -23.628
rhand -14.4457 16.8086
rfingers 7.12502
rthumb 11.6994 -12.8447
lclavicle 4.48756e-014 -3.02153e-014
lhumerus 24.2895 -59.795 74.9122
lradius 71.2207
lwrist -2.74055
lhand -6.37695 24.9784
lfingers 7.12502
lthumb 19.47 54.0236
rfemur -19.3894 3.30105 21.5954
rtibia 44.1001
rfoot -17.6601 -12.1421
rtoes 23.5011
lfemur -22.3569 0.0935006 -11.7471
ltibia 58.555
lfoot -12.6712 2.23096
ltoes 0.396223
376
root 8.96201 17.2412 13.4061 -3.73704 19.8004 -3.38543
lowerback 7.70127 -4.19996 -3.71156
upperback -2.07057 -5.61207 6.5408
thorax -5.47891 -2.53925 9.73672
lowerneck -4.92022 -8.0663 -16.3246
upperneck 17.8623 -11.622 12.9484
head 8.0304 -5.6875 5.92915
rclavicle -5.01931e-014 -6.36111e-015
rhumerus -29.131 -17.5237 -59.231
rradius 40.5157
rwrist -25.2906
rhand -13.5944 15.8602
rfingers 7.12502
rthumb 12.5202 -13.7447
lclavicle -5.01931e-014 -6.36111e-015
lhumerus 20.6645 -58.1503 76.6647
lradius 69.1117
lwrist -3.80228
lhand -5.48159 26.5379
lfingers 7.12502
lthumb 20.3306 55.4938
rfemur -18.575 3.47339 21.6889
rtibia 43.4787
rfoot -17.6799 -11.8593
rtoes 23.8937
lfemur -22.1584 -0.648668 -10.8355
ltibia 56.348
lfoot -13.4763 3.50756
ltoes -2.24095
377
root 9.07457 17.2604 13.4749 -3.76782 19.5662 -3.27356
lowerback 7.59844 -4.09702 -3.35808
upperback -2.13105 -5.44438 6.34315
thorax -5.56691 -2.46438 9.29258
lowerneck -4.49379 -8.0682 -16.3783
upperneck 17.752 -11.6293 12.7321
head 7.90901 -5.72682 5.87503
rclavicle -1.26924e-013 5.08889e-014
rhumerus -27.2601 -18.1249 -58.8343
rradius 40.6949
rwrist -25.2453
rhand -12.7894 15.5766
rfingers 7.12502
rthumb 13.2962 -13.9792
lclavicle -1.26924e-013 5.08889e-014
lhumerus 17.0726 -55.9535 78.4285
lradius 66.9672
lwrist -4.78122
lhand -4.55231 27.9509
lfingers 7.12502
lthumb 21.2235 56.809
rfemur -17.8147 3.52814 21.2778
rtibia 42.8906
rfoot -17.7422 -11.5611
rtoes 23.961
lfemur -21.8425 -1.63131 -10.4454
ltibia 54.004
lfoot -14.431 4.78063
ltoes -4.71085
378
root 9.18343 17.2777 13.5444 -3.7095 19.1905 -2.99795
lowerback 7.41414 -3.92508 -3.4254
upperback -2.04662 -5.22608 6.26317
thorax -5.41287 -2.36411 9.19756
lowerneck -4.61075 -8.15905 -16.4737
upperneck 17.6635 -11.6686 12.4753
head 7.8997 -5.76524 5.7894
rclavicle 5.2181e-014 3.18055e-015
rhumerus -25.3607 -18.1222 -58.5219
rradius 41.4884
rwrist -25.8001
rhand -12.3181 15.373
rfingers 7.12502
rthumb 13.7505 -14.1527
lclavicle 5.2181e-014 3.18055e-015
lhumerus 14.1921 -53.3151 79.8085
lradius 64.7175
lwrist -5.78412
lhand -4.07618 29.2483
lfingers 7.12502
lthumb 21.6808 58.0543
rfemur -17.1568 3.69889 20.7276
rtibia 42.368
rfoot -17.8903 -11.2892
rtoes 24.1567
lfemur -21.4692 -2.49088 -10.2231
ltibia 51.5566
lfoot -14.6649 6.71706
ltoes -5.7662
379
root 9.28485 17.291 13.6202 -3.78343 18.6499 -2.93625
lowerback 7.47429 -3.698 -3.37959
upperback -2.07077 -4.91693 6.23768
thorax -5.53417 -2.20516 9.12294
lowerneck -4.75043 -8.11417 -16.7121
upperneck 17.7687 -11.571 12.5006
head 7.96145 -5.72784 5.84524
rclavicle -3.21037e-014 1.74931e-014
rhumerus -23.8261 -17.7406 -58.1431
rradius 42.4401
rwrist -26.5994
rhand -11.9812 15.448
rfingers 7.12502
rthumb 14.0751 -14.0554
lclavicle -3.21037e-014 1.74931e-014
lhumerus 11.34 -50.6663 81.0748
lradius 62.3914
lwrist -6.57897
lhand -4.55724 29.8644
lfingers 7.12502
lthumb 21.2188 58.723
rfemur -16.4276 4.24336 20.4994
rtibia 41.9316
rfoot -18.1021 -11.2451
rtoes 24.0785
lfemur -20.9318 -3.16433 -9.70919
ltibia 49.0684
lfoot -14.6603 8.40786
ltoes -5.51099
380
root 9.38161 17.2934 13.6927 -3.85853 18.2149 -2.96215
lowerback 8.07697 -3.5463 -2.99705
upperback -2.56622 -4.67036 6.0504
thorax -6.49548 -2.04239 8.76822
lowerneck -4.53964 -7.90614 -16.8502
upperneck 18.3338 -11.3531 12.5139
head 8.08366 -5.64431 5.91684
rclavicle 5.96354e-016 -7.95139e-014
rhumerus -23.116 -17.0564 -57.7514
rradius 43.3919
rwrist -27.3821
rhand -11.8787 15.4657
rfingers 7.12502
rthumb 14.1739 -14.0308
lclavicle 5.96354e-016 -7.95139e-014
lhumerus 7.2188 -47.777 83.0196
lradius 60.1712
lwrist -7.9358
lhand -5.77413 29.3866
lfingers 7.12502
lthumb 20.0495 58.3721
rfemur -15.7117 4.763 20.4159
rtibia 41.542
rfoot -18.1842 -11.4676
rtoes 22.2535
lfemur -20.3649 -3.98523 -9.04104
ltibia 46.6373
lfoot -14.8351 9.37429
ltoes -1.74668
381
root 9.48442 17.2927 13.7598 -3.7672 17.7939 -2.84285
lowerback 6.98543 -3.53945 -3.19618
upperback -1.73533 -4.69785 6.16118
thorax -4.9595 -2.13777 8.84149
lowerneck -5.98639 -7.90063 -16.7406
upperneck 18.2498 -11.0683 12.2782
head 8.25396 -5.46436 5.79899
rclavicle 1.63997e-015 3.65764e-014
rhumerus -19.8753 -17.1682 -58.0581
rradius 44.0377
rwrist -27.5317
rhand -12.3552 15.6795
rfingers 7.12502
rthumb 13.7147 -13.8485
lclavicle 1.63997e-015 3.65764e-014
lhumerus 6.43543 -43.2801 82.7644
lradius 57.9203
lwrist -10.0684
lhand -4.84385 30.7367
lfingers 7.12502
lthumb 20.9434 59.626
rfemur -15.1346 5.03292 20.1288
rtibia 41.155
rfoot -18.1582 -11.5995
rtoes 19.0623
lfemur -19.9475 -4.81458 -8.57485
ltibia 44.3321
lfoot -14.7404 10.3384
ltoes 2.40824
